<?xml version="1.0" standalone="no"?>
<!DOCTYPE svg PUBLIC "-//W3C//DTD SVG 20010904//EN"
 "http://www.w3.org/TR/2001/REC-SVG-20010904/DTD/svg10.dtd">
<svg version="1.0" xmlns="http://www.w3.org/2000/svg"
 width="1200.000000pt" height="1212.000000pt" viewBox="0 0 1200.000000 1212.000000"
 preserveAspectRatio="xMidYMid meet">

<g transform="translate(0.000000,1212.000000) scale(0.100000,-0.100000)"
fill="#000000" stroke="none">
<path d="M5650 12030 c-342 -45 -724 -179 -994 -347 l-49 -31 154 5 c116 4
177 1 249 -11 274 -47 555 -148 865 -310 l140 -74 70 41 c175 100 466 224 665
281 216 63 268 71 473 71 103 0 187 1 187 2 0 6 -195 111 -277 150 -261 122
-516 195 -803 228 -174 21 -507 18 -680 -5z"/>
<path d="M4145 11291 c-50 -21 -255 -267 -371 -446 -216 -331 -350 -691 -411
-1100 -23 -159 -24 -550 0 -710 61 -428 211 -818 449 -1167 81 -119 89 -124
71 -46 -42 179 21 489 172 843 214 500 690 1254 1143 1810 l82 100 -63 63
c-84 86 -267 249 -379 339 -295 235 -575 362 -693 314z"/>
<path d="M7689 11281 c-196 -63 -477 -258 -801 -558 l-148 -136 22 -28 c597
-741 1059 -1490 1272 -2063 93 -249 136 -510 107 -656 -7 -34 -10 -64 -8 -67
11 -10 188 272 259 412 141 280 226 552 270 865 20 145 17 576 -5 715 -92 573
-333 1073 -700 1453 l-81 82 -65 -1 c-36 0 -91 -8 -122 -18z"/>
<path d="M5888 9808 c-187 -151 -362 -310 -583 -532 -696 -698 -1125 -1343
-1125 -1690 0 -152 30 -198 225 -346 382 -288 842 -468 1331 -520 151 -17 524
-8 674 15 146 22 387 83 516 130 251 92 561 268 769 437 120 98 147 148 146
275 -1 292 -275 758 -791 1348 -143 163 -547 567 -705 705 -155 136 -321 270
-334 270 -5 0 -60 -41 -123 -92z"/>
<path d="M7450 5933 c-284 -29 -518 -107 -725 -244 -111 -74 -305 -270 -384
-388 -199 -300 -285 -618 -284 -1046 0 -346 54 -597 182 -849 78 -154 155
-260 276 -381 122 -121 237 -204 387 -279 125 -62 234 -96 408 -128 164 -30
485 -30 650 0 394 71 727 288 948 619 58 85 144 260 181 367 70 198 108 485
98 736 -21 522 -186 922 -502 1218 -229 214 -502 332 -857 371 -91 10 -298 12
-378 4z m465 -463 c407 -110 676 -440 751 -919 25 -159 22 -450 -5 -605 -48
-267 -146 -469 -308 -629 -191 -188 -391 -273 -671 -284 -290 -12 -511 53
-707 211 -217 174 -353 430 -401 758 -23 155 -15 481 15 615 71 320 222 564
445 716 111 75 273 139 411 160 17 3 111 4 210 2 146 -3 195 -7 260 -25z"/>
<path d="M176 5858 c4 -6 254 -353 556 -770 l548 -759 -582 -802 c-319 -441
-592 -817 -606 -834 l-24 -33 273 1 274 0 466 642 c256 352 470 642 475 644 5
2 218 -287 474 -642 l465 -644 273 -1 273 0 -39 53 c-21 28 -141 194 -267 367
-125 173 -381 525 -567 782 l-338 468 546 752 c301 414 554 761 562 771 14 16
1 17 -259 17 l-274 -1 -423 -584 -424 -585 -187 258 c-103 141 -294 404 -424
585 l-238 327 -270 0 c-203 0 -268 -3 -263 -12z"/>
<path d="M3310 5186 l0 -686 -213 0 -213 0 -146 -202 -147 -203 360 -3 359 -2
0 -716 0 -715 863 4 c851 3 863 3 961 26 330 74 548 229 662 468 53 112 75
208 81 358 11 270 -58 449 -241 623 -73 69 -198 151 -263 173 -41 13 -42 24
-4 44 59 30 179 134 226 196 153 203 195 488 111 755 -37 114 -89 197 -186
294 -128 128 -260 195 -480 243 -91 19 -133 20 -912 24 l-818 4 0 -685z m1630
240 c144 -47 258 -143 301 -253 27 -70 37 -231 20 -314 -29 -138 -111 -247
-228 -301 -124 -59 -140 -60 -715 -65 l-528 -5 0 482 0 481 548 -3 c495 -3
552 -6 602 -22z m93 -1360 c100 -30 170 -68 227 -126 90 -89 130 -199 130
-355 0 -255 -119 -405 -379 -478 -73 -20 -100 -21 -648 -25 l-573 -3 0 506 0
506 593 -4 c527 -3 598 -5 650 -21z"/>
<path d="M9080 5865 c0 -3 250 -348 555 -767 305 -420 553 -768 551 -773 -2
-6 -272 -381 -600 -833 -328 -452 -596 -824 -596 -827 0 -3 120 -5 268 -5
l268 0 464 644 c256 355 470 644 475 642 6 -1 220 -290 476 -642 l466 -639
272 -3 273 -2 -23 32 c-13 18 -284 391 -603 828 -319 437 -580 802 -580 810 0
8 249 356 552 773 304 417 552 760 552 763 0 2 -121 4 -268 4 l-268 0 -419
-577 c-230 -318 -421 -581 -424 -585 -4 -5 -198 255 -431 577 l-424 585 -268
0 c-147 0 -268 -2 -268 -5z"/>
<path d="M1263 1381 c-131 -36 -206 -89 -250 -179 -25 -51 -28 -68 -28 -152 1
-111 20 -161 87 -229 61 -61 161 -105 353 -155 185 -48 247 -69 283 -92 82
-54 84 -191 4 -277 -56 -59 -244 -86 -370 -53 -120 32 -184 96 -205 205 l-12
61 -89 0 -89 0 6 -67 c13 -135 97 -255 220 -316 85 -42 167 -57 307 -57 196 0
309 36 402 127 72 70 93 127 93 248 0 89 -3 105 -27 151 -56 105 -157 165
-368 214 -350 82 -410 118 -410 248 0 122 120 193 300 178 167 -13 234 -60
266 -185 l11 -46 98 -3 98 -3 -6 56 c-11 107 -82 218 -174 272 -80 47 -157 65
-298 69 -107 4 -143 1 -202 -15z"/>
<path d="M8183 1386 c-85 -20 -176 -70 -223 -124 -55 -62 -73 -124 -68 -231 5
-106 38 -174 110 -232 73 -57 137 -83 333 -133 99 -26 207 -59 241 -75 52 -24
64 -35 84 -76 47 -96 5 -205 -98 -253 -52 -25 -68 -27 -182 -27 -117 0 -129 2
-188 29 -97 45 -152 123 -152 215 l0 31 -96 0 -97 0 6 -67 c13 -135 100 -260
222 -318 85 -40 167 -55 305 -55 193 0 308 36 398 123 75 72 102 146 103 276
1 99 -20 149 -85 209 -69 63 -150 97 -346 143 -206 48 -270 71 -316 111 -60
53 -69 158 -19 224 14 18 46 42 72 55 41 20 64 24 153 24 134 0 190 -16 246
-69 33 -32 46 -55 60 -104 l17 -62 95 0 95 0 -7 48 c-22 160 -118 273 -276
323 -86 27 -297 35 -387 15z"/>
<path d="M2510 730 l0 -640 455 0 455 0 0 85 0 85 -360 0 -360 0 0 200 0 200
320 0 320 0 0 80 0 80 -320 0 -320 0 0 190 0 190 360 0 360 0 0 85 0 85 -455
0 -455 0 0 -640z"/>
<path d="M3990 731 l0 -641 95 0 95 0 0 260 0 260 218 0 c235 0 269 -7 319
-61 36 -40 44 -77 53 -240 6 -99 14 -170 24 -193 l15 -36 101 0 c93 0 100 1
91 18 -16 31 -30 125 -40 272 -6 80 -16 162 -23 183 -16 51 -70 112 -118 133
l-39 18 38 17 c54 24 109 83 140 148 35 77 37 211 3 286 -29 64 -83 120 -147
152 -102 53 -126 56 -487 60 l-338 5 0 -641z m694 444 c22 -11 53 -37 70 -58
57 -71 46 -215 -22 -280 -57 -54 -89 -61 -324 -65 l-218 -4 0 217 0 216 228
-3 c204 -3 231 -5 266 -23z"/>
<path d="M5570 730 l0 -640 95 0 95 0 0 640 0 640 -95 0 -95 0 0 -640z"/>
<path d="M6410 730 l0 -640 460 0 460 0 0 85 0 85 -365 0 -365 0 0 200 0 200
320 0 320 0 0 80 0 80 -320 0 -320 0 0 190 0 190 365 0 365 0 0 85 0 85 -460
0 -460 0 0 -640z"/>
<path d="M9920 1365 c0 -3 99 -140 220 -306 l219 -302 -21 -31 c-19 -26 -318
-441 -425 -588 l-35 -48 109 0 108 0 181 253 c100 138 185 251 190 250 5 -1
91 -113 190 -250 l182 -248 106 -3 c58 -1 106 0 106 3 0 3 -106 152 -235 331
-129 178 -235 327 -235 330 0 5 372 521 433 602 7 9 -14 12 -99 12 l-109 0
-170 -235 c-93 -129 -172 -231 -176 -227 -3 4 -79 109 -168 235 l-162 227
-104 0 c-58 0 -105 -2 -105 -5z"/>
</g>
</svg>
